<svg xmlns="http://www.w3.org/2000/svg" width="12" height="12" viewBox="0 0 12 12">
	<circle fill="#9AA7B0" fill-opacity=".3" cx="6" cy="6" r="6"/>
	<path fill="#6E6E6E" d="M7.656 2.589c.492.221.898.569 1.22 1.044.288.419.477.905.562 1.458.049.324.07.791.06 1.401h-5.14c.028.707.275 1.204.738 1.488.281.177.621.266 1.017.266.421 0 .762-.108 1.024-.324.143-.116.271-.278.38-.486H9.4c-.049.419-.277.844-.683 1.277-.632.686-1.517 1.028-2.654 1.028-.939 0-1.768-.289-2.485-.868C2.859 8.295 2.5 7.352 2.5 6.048c0-1.222.325-2.16.973-2.812.648-.653 1.488-.979 2.524-.979.614.001 1.166.112 1.659.332zm-2.76 1.594c-.262.268-.425.632-.493 1.092h3.179c-.033-.49-.197-.861-.491-1.115-.294-.253-.66-.38-1.093-.38-.475 0-.843.134-1.102.403z"/>
</svg>
