<svg xmlns="http://www.w3.org/2000/svg" width="16" height="16" viewBox="0 0 16 16">
    <path opacity=".7" fill="#62B543" d="M1 16h15V9H1v7z"/>
    <path opacity=".7" fill="#231F20" d="M5.445 10.886h-2.61v1.062h2.397v.868H2.834v1.286h2.731v.899H1.828v-5h3.617v.885zm.855-.885h1.03v4.101h2.462v.899H6.3v-5zm7.389 0h1.483v5h-.961v-3.382c0-.097.001-.234.003-.41.002-.175.003-.31.003-.405l-.935 4.197H12.28l-.928-4.197c0 .095.001.231.003.405.003.176.004.313.004.41v3.382h-.961v-5h1.5l.898 3.932.893-3.932z"/>
    <path opacity=".8" fill="#9AA7B0" d="M1 8h14V4H7.985L6.696 2.711C6.222 2.286 5.637 2.035 5 2H1v6z"/>
</svg>
